<svg width="238" height="71" viewBox="0 0 238 71" fill="none" xmlns="http://www.w3.org/2000/svg">
<g clip-path="url(#clip0_334_1213)">
<path d="M9.13547 12.4199C9.13547 14.9418 7.09053 16.986 4.56773 16.986C2.04494 16.986 0 14.9418 0 12.4199C0 9.89799 2.04494 7.85377 4.56773 7.85377C7.09053 7.85377 9.13547 9.89799 9.13547 12.4199ZM8.83329 0.540912C7.29432 0.540912 6.04346 1.79133 6.04346 3.32977C6.04346 4.86821 7.29432 6.11863 8.83329 6.11863C10.3723 6.11863 11.6231 4.86821 11.6231 3.32977C11.6231 1.79133 10.3723 0.540912 8.83329 0.540912ZM33.8504 34.3444H29.0157C28.1232 34.3444 27.4064 35.2085 27.4064 36.1006C27.4064 36.9928 28.1302 37.8568 29.0157 37.8568H33.8504C34.7429 37.8568 35.4597 36.9928 35.4597 36.1006C35.4667 35.2085 34.7429 34.3444 33.8504 34.3444ZM59.6897 57.6317C59.6897 57.6317 59.254 57.6809 58.5021 57.7722C58.3124 57.7933 58.1016 57.8214 57.8767 57.8425C57.6518 57.8846 57.4059 57.9268 57.1459 57.9689C56.6258 58.0603 56.0355 58.1586 55.4031 58.3061C55.0869 58.3764 54.7566 58.4466 54.4123 58.5239C54.0749 58.6222 53.7306 58.7206 53.3722 58.8189C52.6484 59.0016 51.9176 59.2896 51.1516 59.5495C50.7721 59.697 50.3926 59.8586 50.0061 60.0202C49.8164 60.0975 49.6196 60.1818 49.4229 60.2661C49.2331 60.3574 49.0434 60.4487 48.8537 60.54C48.4742 60.7297 48.0807 60.8983 47.7012 61.109C47.3217 61.3198 46.9493 61.5305 46.5698 61.7413C46.1903 61.952 45.8319 62.1838 45.4595 62.4086L44.9114 62.7458L44.3843 63.1111C44.04 63.357 43.6816 63.5818 43.3513 63.8417C43.021 64.1016 42.6978 64.3545 42.3745 64.6004C42.0513 64.8462 41.7631 65.1272 41.468 65.3731C41.1728 65.633 40.8777 65.8719 40.6177 66.1388C40.0836 66.6587 39.5777 67.1434 39.149 67.6351C38.9311 67.8739 38.7203 68.1058 38.5165 68.3235C38.3268 68.5483 38.1441 68.7661 37.9754 68.9628C37.6311 69.3632 37.336 69.7145 37.1111 70.0306C36.6543 70.6417 36.3873 70.993 36.3873 70.993L36.1273 70.8033C36.1273 70.8033 36.1413 70.6769 36.1835 70.4591C36.2327 70.2413 36.2748 69.9041 36.3873 69.5107C36.4435 69.314 36.4856 69.0892 36.563 68.8504C36.6332 68.6045 36.7386 68.3587 36.844 68.0777C36.9495 67.8037 37.0759 67.5157 37.2024 67.2066C37.343 66.9115 37.5046 66.6165 37.6662 66.3004C37.8349 65.9913 38.0106 65.6541 38.2214 65.338C38.4322 65.0148 38.6571 64.6917 38.889 64.3545C39.1139 64.0103 39.3949 63.7012 39.669 63.364C39.8166 63.1814 39.9712 63.0057 40.1328 62.8231C39.662 62.7037 39.1912 62.5491 38.7274 62.3524C35.1505 60.9334 31.5384 57.8355 29.8308 53.5503C28.3972 54.3371 26.4718 55.6226 24.9117 56.9503L24.9539 57.0065L23.7241 58.0392C22.4241 59.1351 20.8218 59.697 19.1915 59.697C18.2639 59.697 17.3223 59.5144 16.4298 59.1351C14.7011 58.4045 13.3518 57.0346 12.6491 55.2925C11.9464 53.5503 11.9604 51.6325 12.6913 49.9044C13.5767 47.6776 15.5514 46.1742 17.4558 44.7201C18.299 44.0808 19.1283 43.4486 19.8802 42.7531C18.5169 42.999 17.0622 43.1817 15.46 43.3151C15.2914 43.3292 15.1157 43.3362 14.947 43.3362C13.5486 43.3362 12.1994 42.8445 11.1101 41.9312C9.88739 40.9056 9.14249 39.4585 9.00898 37.8709C8.87546 36.2833 9.36737 34.7308 10.3934 33.5155C11.4193 32.2932 12.867 31.5485 14.4551 31.4151C16.8725 31.1973 19.1775 29.9609 21.7424 27.4811C17.8493 24.7485 15.2984 20.2245 15.2984 15.1104C15.3124 6.76492 22.0797 0 30.4281 0C38.7765 0 45.5438 6.76492 45.5438 15.1104C45.5438 17.8782 44.7919 20.4704 43.4919 22.7043C48.9731 23.5262 53.7236 26.301 57.6237 30.9725L57.7362 31.127C58.6005 32.4688 58.8957 34.0634 58.5583 35.6229C58.221 37.1824 57.3005 38.5172 55.9583 39.3882C54.9604 40.0345 53.829 40.3577 52.7046 40.3577C51.3343 40.3577 49.971 39.88 48.8607 38.9457L48.7904 38.8895C47.8909 38.1589 46.8509 37.618 45.6211 37.2386C45.5017 40.0697 45.1362 42.6618 44.56 44.8606C44.567 44.9098 44.5741 44.9589 44.5741 45.0151C44.5741 47.1718 45.0308 51.2602 46.7314 53.0234L46.7455 53.0375C48.0244 54.2528 48.6218 55.7491 48.5093 57.3788C48.6218 57.3437 48.7342 57.3086 48.8537 57.2735C49.2964 57.14 49.7251 56.9925 50.1607 56.8941C51.0392 56.7045 51.8824 56.5218 52.6976 56.4656C53.1052 56.4375 53.4987 56.3883 53.8852 56.3743C54.2717 56.3743 54.6441 56.3743 55.0025 56.3883C55.3609 56.4094 55.6982 56.4024 56.0215 56.4516C56.3448 56.4937 56.654 56.5288 56.9421 56.578C57.2302 56.6272 57.4972 56.6623 57.7432 56.7255C57.9891 56.7958 58.214 56.852 58.4178 56.9082C58.8254 57.0065 59.1346 57.14 59.3524 57.2103C59.5632 57.2875 59.6757 57.3367 59.6757 57.3367L59.6897 57.6317ZM28.9173 4.1587C28.9173 4.98763 29.5919 5.66904 30.4281 5.66904C31.2644 5.66904 31.939 4.99466 31.939 4.1587C31.939 3.32275 31.2644 2.64836 30.4281 2.64836C29.5919 2.65539 28.9173 3.32977 28.9173 4.1587ZM21.8548 19.3042C21.2083 17.9906 20.8851 16.5786 20.8851 15.1104C20.8851 11.3732 23.0846 7.95914 26.4929 6.4207C27.2026 6.09756 27.5188 5.2616 27.1956 4.55209C26.8723 3.84258 26.0361 3.52647 25.3263 3.84961C20.9132 5.85169 18.0601 10.2703 18.0601 15.1104C18.0601 17.0212 18.4818 18.8476 19.318 20.5476C19.564 21.0464 20.0629 21.3344 20.5829 21.3344C20.7937 21.3344 21.0045 21.2852 21.2013 21.1869C21.9111 20.8497 22.1992 19.9997 21.8548 19.3042ZM39.9571 59.3809C41.0885 59.8586 42.241 60.0061 43.1616 59.7954C44.054 59.5917 44.6514 59.0929 45.0027 58.278C45.4876 57.133 45.4033 56.297 44.7005 55.5313L44.4968 55.3276C43.1967 54.021 42.4307 52.1594 41.981 50.34C41.6929 50.5718 41.3345 50.6912 40.9691 50.6912C40.6247 50.6912 40.2804 50.5788 39.9852 50.354C39.2825 49.8131 39.149 48.8015 39.6971 48.092C40.8777 46.5676 42.234 42.6969 42.4237 36.6415C42.1496 36.6205 41.8685 36.5994 41.5804 36.5853C40.688 36.5502 39.9993 35.7986 40.0415 34.9064C40.0836 34.0142 40.8355 33.3258 41.721 33.368C42.6345 33.4101 43.4919 33.4944 44.307 33.6279C44.3422 33.6349 44.3773 33.6349 44.4054 33.6419C47.0477 34.0845 49.205 35.0118 50.9408 36.4589L51.0321 36.5362C51.9527 37.2597 53.2246 37.3159 54.2155 36.6767C54.8339 36.2762 55.2555 35.6651 55.4101 34.9415C55.5577 34.2531 55.4382 33.5436 55.0798 32.9465C51.3694 28.5349 46.9985 26.1745 41.735 25.732C41.5734 25.7179 41.4258 25.6758 41.2853 25.6196C38.5376 28.4506 34.6937 30.2138 30.4352 30.2138C28.4043 30.2138 26.4718 29.8134 24.7079 29.0898C21.3419 32.5461 18.1444 34.3163 14.7643 34.6254C14.0194 34.6886 13.3589 35.0328 12.881 35.5948C12.4102 36.1568 12.1783 36.8663 12.2415 37.6039C12.3048 38.3345 12.6491 39.0019 13.2113 39.4725C13.7735 39.9432 14.4832 40.175 15.2211 40.1118C18.1374 39.88 20.5197 39.4515 22.663 38.7982C22.9652 37.913 23.1479 36.9085 23.169 35.7353C23.183 34.8432 23.9068 34.1196 24.8063 34.1477C25.6988 34.1618 26.4085 34.8923 26.3945 35.7845C26.282 42.0717 22.4873 44.9589 19.4304 47.2842C17.7298 48.5767 16.2611 49.6937 15.6919 51.1267C15.2773 52.1032 15.2703 53.1358 15.6498 54.0842C16.0292 55.0326 16.7601 55.7702 17.7017 56.1706C19.0088 56.7255 20.4986 56.5148 21.6019 55.6226C23.6257 53.6135 26.795 51.4639 28.9735 50.361C28.8751 49.6796 28.8119 48.9701 28.8119 48.2325C28.8119 47.3404 29.5357 46.6238 30.4211 46.6238C31.3136 46.6238 32.0304 47.3474 32.0304 48.2325C32.0304 49.1247 32.1358 49.9817 32.3255 50.7966C32.3325 50.8106 32.3325 50.8176 32.3325 50.8317C33.3515 55.0255 36.6684 58.0743 39.9571 59.3809Z" fill="#492909"/>
<path d="M75.3466 41.8401C73.9481 40.2805 73.2524 37.7727 73.2524 34.3094V30.9235H80.0619V35.2367C80.0619 36.9578 80.61 37.8148 81.7133 37.8148C82.3317 37.8148 82.7604 37.6322 82.9993 37.2739C83.2382 36.9086 83.3647 36.2975 83.3647 35.4404C83.3647 34.3094 83.2312 33.3822 82.9641 32.6375C82.6971 31.8999 82.3528 31.2817 81.9382 30.783C81.5236 30.2842 80.7787 29.5115 79.7035 28.4648L76.7239 25.4862C74.4119 23.2313 73.2595 20.7304 73.2595 17.9907C73.2595 15.0403 73.9341 12.7853 75.2974 11.2469C76.6536 9.70144 78.6353 8.92871 81.2425 8.92871C84.3555 8.92871 86.6043 9.75764 87.9746 11.4085C89.3449 13.0593 90.0336 15.6445 90.0336 19.1639H82.9782L82.922 16.7825C82.922 16.3259 82.7955 15.9606 82.5425 15.6936C82.2895 15.4267 81.9311 15.2932 81.4744 15.2932C80.9333 15.2932 80.5327 15.4407 80.2657 15.7358C79.9986 16.0308 79.8651 16.4383 79.8651 16.944C79.8651 18.075 80.5116 19.2412 81.7976 20.4494L85.8243 24.3201C86.7659 25.2334 87.5459 26.0974 88.1643 26.9193C88.7827 27.7412 89.2817 28.7036 89.6541 29.8206C90.0336 30.9375 90.2163 32.2582 90.2163 33.7896C90.2163 37.2037 89.5909 39.7888 88.34 41.545C87.0892 43.3012 85.0302 44.1864 82.156 44.1864C79.0148 44.1723 76.745 43.3996 75.3466 41.8401Z" fill="#492909"/>
<path d="M92.5142 9.24512H101.664C104.432 9.24512 106.407 10.1373 107.588 11.9216C108.768 13.7059 109.359 16.3191 109.359 19.7543C109.359 23.1964 108.832 25.7816 107.784 27.5308C106.737 29.2799 104.854 30.151 102.142 30.151H99.3236V43.8494H92.5142V9.24512ZM99.7312 23.913C100.56 23.913 101.172 23.7584 101.565 23.4493C101.952 23.1402 102.212 22.6977 102.331 22.1216C102.451 21.5456 102.514 20.7167 102.514 19.6419C102.514 18.1948 102.352 17.141 102.029 16.5018C101.706 15.8555 101.059 15.5323 100.097 15.5323H99.3306V23.913H99.7312Z" fill="#492909"/>
<path d="M110.609 43.8563L113.954 9.25195H125.683L128.986 43.8563H122.415L121.93 38.2575H117.742L117.342 43.8563H110.609ZM118.269 32.736H121.41L119.878 15.1317H119.555L118.269 32.736Z" fill="#492909"/>
<path d="M133.076 41.7981C131.558 40.2105 130.799 38.0398 130.799 35.272V19.3186C130.799 15.8835 131.487 13.2913 132.858 11.5421C134.228 9.79998 136.378 8.92188 139.309 8.92188C141.86 8.92188 143.919 9.61733 145.472 11.0153C147.032 12.4132 147.812 14.4293 147.812 17.0566V23.0207H140.918V17.9066C140.918 16.9161 140.799 16.2277 140.553 15.8484C140.314 15.476 139.892 15.2864 139.302 15.2864C138.683 15.2864 138.262 15.5041 138.03 15.9327C137.798 16.3612 137.686 16.9934 137.686 17.8294V35.1948C137.686 36.108 137.819 36.7753 138.086 37.1898C138.353 37.6043 138.754 37.815 139.295 37.815C140.37 37.815 140.904 36.9439 140.904 35.1948V28.9497H147.875V35.4757C147.875 41.2783 144.959 44.1795 139.133 44.1795C136.617 44.1725 134.594 43.3857 133.076 41.7981Z" fill="#492909"/>
<path d="M150.187 43.8565V9.24512H164.052V15.9328H157.242V22.6625H163.771V29.1886H157.242V37.1267H164.495V43.8565H150.187Z" fill="#492909"/>
<path d="M170.173 43.2523C168.887 42.6342 167.868 41.728 167.13 40.5337C166.392 39.3395 166.02 37.8924 166.02 36.1994V27.5378H172.829V35.799C172.829 36.4172 172.955 36.9089 173.215 37.2672C173.468 37.6325 173.869 37.8081 174.403 37.8081C174.916 37.8081 175.296 37.6395 175.549 37.3023C175.802 36.9651 175.928 36.4874 175.928 35.8692V9.24512H182.899V35.1949C182.899 36.9932 182.541 38.5738 181.831 39.9296C181.121 41.2854 180.123 42.3321 178.851 43.0697C177.572 43.8073 176.118 44.1796 174.48 44.1796C172.899 44.1726 171.466 43.8635 170.173 43.2523Z" fill="#492909"/>
<path d="M187.46 41.6155C186.012 39.9084 185.281 37.5129 185.281 34.422V17.9488C185.281 14.9703 186.005 12.7153 187.46 11.1979C188.907 9.68056 191.03 8.92188 193.826 8.92188C196.623 8.92188 198.746 9.68056 200.193 11.1979C201.641 12.7153 202.372 14.9632 202.372 17.9488V34.429C202.372 37.541 201.648 39.9506 200.193 41.6365C198.738 43.3295 196.616 44.1725 193.826 44.1725C191.037 44.1725 188.914 43.3225 187.46 41.6155ZM195.077 37.0072C195.288 36.4733 195.401 35.7216 195.401 34.7522V17.8294C195.401 17.0777 195.302 16.4665 195.098 15.9959C194.895 15.5252 194.487 15.2934 193.869 15.2934C192.716 15.2934 192.133 16.1645 192.133 17.9137V34.7943C192.133 35.7919 192.252 36.5435 192.498 37.0493C192.737 37.5621 193.187 37.815 193.826 37.815C194.445 37.808 194.866 37.541 195.077 37.0072Z" fill="#492909"/>
<path d="M205.154 43.8565V9.24512H219.019V15.9328H212.21V22.6625H218.738V29.1886H212.21V37.1267H219.462V43.8565H205.154Z" fill="#492909"/>
<path d="M225.948 43.8563V32.455L220.425 9.25195H227.276L229.209 20.9764L231.141 9.25195H237.993L232.47 32.455V43.8563H225.948Z" fill="#492909"/>
<path d="M102.921 57.2036L103.076 58.2573L103.301 57.3019L104.889 51.7031H105.782L107.328 57.3019L107.545 58.2713L107.714 57.1895L108.958 51.7031H110.019L108.072 59.7255H107.11L105.458 53.8808L105.332 53.2697L105.205 53.8808L103.491 59.7255H102.528L100.588 51.7031H101.642L102.921 57.2036Z" fill="#492909"/>
<path d="M113.343 59.8448C112.535 59.8448 111.881 59.5778 111.368 59.0509C110.862 58.5241 110.609 57.8146 110.609 56.9224V56.7327C110.609 56.1427 110.722 55.6158 110.947 55.1522C111.172 54.6885 111.488 54.3232 111.895 54.0633C112.303 53.8034 112.739 53.6699 113.217 53.6699C113.99 53.6699 114.594 53.9228 115.023 54.4356C115.451 54.9484 115.669 55.679 115.669 56.6274V57.0489H111.628C111.642 57.639 111.818 58.1096 112.141 58.4749C112.472 58.8402 112.886 59.0158 113.392 59.0158C113.751 59.0158 114.06 58.9456 114.306 58.798C114.559 58.6505 114.777 58.4538 114.959 58.215L115.585 58.6997C115.093 59.4584 114.341 59.8448 113.343 59.8448ZM113.217 54.4989C112.802 54.4989 112.458 54.6464 112.183 54.9484C111.902 55.2505 111.734 55.665 111.663 56.2059H114.65V56.1286C114.622 55.6088 114.481 55.2084 114.228 54.9274C113.982 54.6393 113.645 54.4989 113.217 54.4989Z" fill="#492909"/>
<path d="M121.895 56.817C121.895 57.7302 121.684 58.4608 121.27 59.0088C120.848 59.5637 120.286 59.8377 119.583 59.8377C118.831 59.8377 118.248 59.5707 117.833 59.0369L117.784 59.7253H116.85V51.2744H117.869V54.4286C118.283 53.9158 118.845 53.6629 119.569 53.6629C120.293 53.6629 120.862 53.9368 121.277 54.4848C121.691 55.0327 121.895 55.7844 121.895 56.7327V56.817ZM120.876 56.7046C120.876 56.0092 120.743 55.4753 120.476 55.0959C120.209 54.7166 119.822 54.5269 119.316 54.5269C118.642 54.5269 118.164 54.836 117.869 55.4612V58.0393C118.178 58.6645 118.67 58.9736 119.33 58.9736C119.822 58.9736 120.202 58.784 120.469 58.4046C120.743 58.0323 120.876 57.4633 120.876 56.7046Z" fill="#492909"/>
<path d="M132.057 58.6787C131.783 59.0651 131.403 59.3601 130.918 59.5498C130.433 59.7394 129.864 59.8378 129.218 59.8378C128.564 59.8378 127.981 59.6832 127.475 59.3812C126.969 59.0721 126.575 58.6365 126.301 58.0746C126.027 57.5055 125.88 56.8522 125.873 56.1076V55.4051C125.873 54.1968 126.154 53.2625 126.716 52.5952C127.278 51.9278 128.072 51.5977 129.091 51.5977C129.927 51.5977 130.602 51.8084 131.115 52.2369C131.628 52.6654 131.937 53.2696 132.05 54.0563H130.995C130.799 52.9886 130.166 52.4617 129.098 52.4617C128.388 52.4617 127.854 52.7076 127.489 53.2063C127.123 53.7051 126.941 54.4287 126.934 55.37V56.0233C126.934 56.9225 127.137 57.639 127.552 58.1729C127.967 58.7068 128.522 58.9667 129.225 58.9667C129.618 58.9667 129.969 58.9246 130.265 58.8332C130.56 58.7419 130.806 58.5944 131.002 58.3907V56.5923H129.147V55.7283H132.057V58.6787Z" fill="#492909"/>
<path d="M136.54 54.6887C136.385 54.6606 136.217 54.6466 136.041 54.6466C135.373 54.6466 134.917 54.9276 134.678 55.5036V59.7325H133.659V53.7755H134.65L134.664 54.4639C135.001 53.93 135.472 53.6631 136.083 53.6631C136.28 53.6631 136.434 53.6912 136.533 53.7404V54.6887H136.54Z" fill="#492909"/>
<path d="M140.939 59.7327C140.883 59.6133 140.834 59.4026 140.799 59.1075C140.328 59.5993 139.759 59.8451 139.105 59.8451C138.515 59.8451 138.037 59.6765 137.657 59.3464C137.278 59.0162 137.095 58.5947 137.095 58.0819C137.095 57.4637 137.334 56.979 137.805 56.6348C138.276 56.2906 138.943 56.122 139.794 56.122H140.785V55.6513C140.785 55.293 140.679 55.012 140.468 54.8013C140.257 54.5906 139.941 54.4852 139.527 54.4852C139.161 54.4852 138.859 54.5765 138.613 54.7591C138.367 54.9418 138.241 55.1666 138.241 55.4265H137.215C137.215 55.1315 137.32 54.8434 137.531 54.5625C137.742 54.2815 138.03 54.0637 138.388 53.9021C138.747 53.7406 139.147 53.6562 139.583 53.6562C140.272 53.6562 140.806 53.8248 141.199 54.1691C141.586 54.5133 141.789 54.9839 141.803 55.5881V58.3348C141.803 58.8827 141.874 59.3183 142.014 59.6414V59.7327H140.939ZM139.246 58.953C139.569 58.953 139.871 58.8687 140.152 58.7071C140.44 58.5385 140.644 58.3278 140.77 58.0608V56.8385H139.969C138.719 56.8385 138.093 57.2038 138.093 57.9344C138.093 58.2575 138.199 58.5034 138.416 58.686C138.634 58.8617 138.915 58.953 139.246 58.953Z" fill="#492909"/>
<path d="M148.43 56.8172C148.43 57.7234 148.226 58.454 147.805 59.009C147.39 59.5639 146.828 59.8379 146.118 59.8379C145.394 59.8379 144.825 59.6061 144.411 59.1495V62.0156H143.392V53.7755H144.326L144.375 54.4358C144.79 53.923 145.366 53.6631 146.104 53.6631C146.821 53.6631 147.39 53.93 147.805 54.4709C148.219 55.0119 148.43 55.7635 148.43 56.7259V56.8172ZM147.411 56.7048C147.411 56.0305 147.271 55.5036 146.983 55.1102C146.694 54.7238 146.301 54.5271 145.802 54.5271C145.184 54.5271 144.72 54.8011 144.411 55.349V58.1941C144.713 58.735 145.184 59.009 145.809 59.009C146.301 59.009 146.687 58.8123 146.976 58.4259C147.271 58.0396 147.411 57.4635 147.411 56.7048Z" fill="#492909"/>
<path d="M150.749 54.4918C151.199 53.9368 151.789 53.6629 152.513 53.6629C153.771 53.6629 154.41 54.3724 154.417 55.7914V59.7323H153.398V55.7914C153.398 55.3629 153.3 55.0467 153.103 54.836C152.906 54.6323 152.611 54.5269 152.204 54.5269C151.873 54.5269 151.585 54.6182 151.332 54.7939C151.079 54.9695 150.889 55.2013 150.749 55.4893V59.7323H149.73V51.2744H150.749V54.4918Z" fill="#492909"/>
<path d="M155.949 52.1946C155.949 52.026 155.998 51.8925 156.104 51.7731C156.202 51.6607 156.357 51.6045 156.554 51.6045C156.75 51.6045 156.905 51.6607 157.003 51.7731C157.109 51.8855 157.158 52.026 157.158 52.1946C157.158 52.3562 157.109 52.4966 157.003 52.609C156.898 52.7214 156.75 52.7776 156.554 52.7776C156.357 52.7776 156.202 52.7214 156.104 52.609C155.998 52.4966 155.949 52.3562 155.949 52.1946ZM157.045 59.7322H156.027V53.7752H157.045V59.7322Z" fill="#492909"/>
<path d="M161.072 59.009C161.438 59.009 161.754 58.8966 162.028 58.6788C162.302 58.461 162.449 58.1801 162.478 57.8499H163.44C163.419 58.1941 163.307 58.5172 163.089 58.8263C162.871 59.1354 162.583 59.3813 162.225 59.5639C161.866 59.7466 161.48 59.8379 161.079 59.8379C160.264 59.8379 159.625 59.5639 159.14 59.023C158.662 58.4821 158.423 57.7375 158.423 56.8032V56.6346C158.423 56.0515 158.528 55.5387 158.739 55.0891C158.95 54.6395 159.259 54.2883 159.66 54.0354C160.06 53.7825 160.531 53.6631 161.072 53.6631C161.74 53.6631 162.295 53.8668 162.738 54.2672C163.18 54.6676 163.419 55.1875 163.447 55.8267H162.485C162.457 55.4404 162.309 55.1243 162.049 54.8784C161.789 54.6325 161.466 54.5061 161.079 54.5061C160.559 54.5061 160.159 54.6957 159.877 55.061C159.589 55.4333 159.449 55.9743 159.449 56.6767V56.8664C159.449 57.5548 159.589 58.0817 159.87 58.454C160.145 58.8263 160.545 59.009 161.072 59.009Z" fill="#492909"/>
<path d="M167.537 59.7323V51.71H169.8C170.496 51.71 171.114 51.8645 171.648 52.1736C172.182 52.4827 172.597 52.9182 172.892 53.4943C173.18 54.0633 173.335 54.7166 173.335 55.4542V55.967C173.335 56.7257 173.187 57.386 172.899 57.955C172.604 58.524 172.189 58.9596 171.648 59.2687C171.107 59.5708 170.475 59.7323 169.758 59.7393H167.537V59.7323ZM168.598 52.574V58.8612H169.709C170.524 58.8612 171.156 58.6083 171.613 58.1026C172.07 57.5968 172.295 56.8732 172.295 55.9389V55.4682C172.295 54.555 172.084 53.8455 171.655 53.3397C171.226 52.8339 170.622 52.581 169.835 52.574H168.598Z" fill="#492909"/>
<path d="M177.256 59.8448C176.448 59.8448 175.787 59.5778 175.281 59.0509C174.775 58.5241 174.522 57.8146 174.522 56.9224V56.7327C174.522 56.1427 174.635 55.6158 174.86 55.1522C175.085 54.6885 175.401 54.3232 175.808 54.0633C176.216 53.8034 176.652 53.6699 177.13 53.6699C177.903 53.6699 178.507 53.9228 178.936 54.4356C179.364 54.9484 179.582 55.679 179.582 56.6274V57.0489H175.541C175.555 57.639 175.724 58.1096 176.054 58.4749C176.385 58.8402 176.799 59.0158 177.305 59.0158C177.664 59.0158 177.973 58.9456 178.219 58.798C178.472 58.6505 178.69 58.4538 178.872 58.215L179.498 58.6997C178.999 59.4584 178.254 59.8448 177.256 59.8448ZM177.13 54.4989C176.722 54.4989 176.371 54.6464 176.097 54.9484C175.815 55.2505 175.647 55.665 175.577 56.2059H178.563V56.1286C178.535 55.6088 178.394 55.2084 178.142 54.9274C177.889 54.6393 177.551 54.4989 177.13 54.4989Z" fill="#492909"/>
<path d="M184.227 58.1518C184.227 57.8778 184.122 57.66 183.918 57.5125C183.707 57.358 183.349 57.2315 182.836 57.1191C182.323 57.0067 181.908 56.8732 181.606 56.7187C181.304 56.5642 181.079 56.3815 180.931 56.1708C180.784 55.96 180.714 55.7071 180.714 55.4121C180.714 54.9274 180.917 54.5129 181.332 54.1757C181.747 53.8385 182.274 53.6699 182.913 53.6699C183.588 53.6699 184.136 53.8455 184.557 54.1968C184.979 54.548 185.19 54.9906 185.19 55.5385H184.164C184.164 55.2575 184.044 55.0187 183.806 54.815C183.567 54.6112 183.271 54.5129 182.913 54.5129C182.541 54.5129 182.253 54.5902 182.042 54.7517C181.831 54.9133 181.725 55.1241 181.725 55.384C181.725 55.6298 181.824 55.8195 182.021 55.9389C182.217 56.0654 182.569 56.1848 183.075 56.2972C183.581 56.4096 183.995 56.5501 184.312 56.7047C184.628 56.8592 184.86 57.0559 185.014 57.2737C185.169 57.4985 185.246 57.7654 185.246 58.0885C185.246 58.6224 185.035 59.0439 184.607 59.3671C184.178 59.6902 183.63 59.8518 182.948 59.8518C182.47 59.8518 182.049 59.7675 181.683 59.5989C181.318 59.4303 181.03 59.1914 180.819 58.8894C180.608 58.5873 180.51 58.2571 180.51 57.9059H181.529C181.55 58.2501 181.683 58.5171 181.936 58.7208C182.189 58.9245 182.527 59.0228 182.948 59.0228C183.335 59.0228 183.644 58.9456 183.876 58.791C184.115 58.6224 184.227 58.4117 184.227 58.1518Z" fill="#492909"/>
<path d="M186.581 52.1946C186.581 52.026 186.63 51.8925 186.729 51.7731C186.827 51.6607 186.982 51.6045 187.178 51.6045C187.375 51.6045 187.53 51.6607 187.628 51.7731C187.734 51.8855 187.783 52.026 187.783 52.1946C187.783 52.3562 187.734 52.4966 187.628 52.609C187.523 52.7214 187.375 52.7776 187.178 52.7776C186.982 52.7776 186.827 52.7214 186.729 52.609C186.63 52.4966 186.581 52.3562 186.581 52.1946ZM187.684 59.7322H186.665V53.7752H187.684V59.7322Z" fill="#492909"/>
<path d="M189.076 56.7048C189.076 55.7776 189.294 55.04 189.722 54.485C190.151 53.9371 190.72 53.6631 191.43 53.6631C192.161 53.6631 192.723 53.923 193.13 54.4358L193.18 53.7755H194.114V59.592C194.114 60.3648 193.882 60.9689 193.426 61.4115C192.969 61.854 192.35 62.0788 191.584 62.0788C191.156 62.0788 190.734 61.9875 190.32 61.8049C189.912 61.6222 189.596 61.3693 189.378 61.0532L189.905 60.4421C190.341 60.983 190.875 61.2499 191.507 61.2499C192.006 61.2499 192.386 61.1094 192.667 60.8284C192.948 60.5474 193.081 60.154 193.081 59.6482V59.1354C192.674 59.6061 192.119 59.8379 191.416 59.8379C190.72 59.8379 190.151 59.5569 189.722 58.9949C189.287 58.44 189.076 57.6743 189.076 56.7048ZM190.095 56.8172C190.095 57.4916 190.235 58.0185 190.509 58.3978C190.783 58.7842 191.17 58.9739 191.669 58.9739C192.308 58.9739 192.786 58.6788 193.081 58.0958V55.3771C192.772 54.8081 192.301 54.5201 191.676 54.5201C191.177 54.5201 190.79 54.7168 190.516 55.0962C190.235 55.4895 190.095 56.0586 190.095 56.8172Z" fill="#492909"/>
<path d="M196.609 53.7753L196.644 54.527C197.101 53.9579 197.691 53.6699 198.429 53.6699C199.687 53.6699 200.327 54.3794 200.334 55.7984V59.7394H199.315V55.7984C199.315 55.3699 199.209 55.0538 199.02 54.8431C198.823 54.6393 198.528 54.534 198.12 54.534C197.79 54.534 197.502 54.6253 197.249 54.8009C197.003 54.9765 196.806 55.2084 196.665 55.4964V59.7394H195.646V53.7823H196.609V53.7753Z" fill="#492909"/>
<path d="M204.346 59.8448C203.538 59.8448 202.885 59.5778 202.372 59.0509C201.866 58.5241 201.613 57.8146 201.613 56.9224V56.7327C201.613 56.1427 201.725 55.6158 201.95 55.1522C202.175 54.6885 202.491 54.3232 202.899 54.0633C203.306 53.8034 203.742 53.6699 204.22 53.6699C204.993 53.6699 205.597 53.9228 206.026 54.4356C206.455 54.9484 206.672 55.679 206.672 56.6274V57.0489H202.632C202.646 57.639 202.821 58.1096 203.145 58.4749C203.475 58.8402 203.89 59.0158 204.396 59.0158C204.754 59.0158 205.063 58.9456 205.309 58.798C205.562 58.6505 205.78 58.4538 205.963 58.215L206.588 58.6997C206.096 59.4584 205.344 59.8448 204.346 59.8448ZM204.22 54.4989C203.805 54.4989 203.461 54.6464 203.187 54.9484C202.906 55.2505 202.737 55.665 202.667 56.2059H205.653V56.1286C205.625 55.6088 205.485 55.2084 205.232 54.9274C204.986 54.6393 204.649 54.4989 204.22 54.4989Z" fill="#492909"/>
<path d="M210.734 54.6887C210.58 54.6606 210.411 54.6466 210.235 54.6466C209.568 54.6466 209.111 54.9276 208.872 55.5036V59.7325H207.853V53.7755H208.844L208.858 54.4639C209.188 53.93 209.666 53.6631 210.277 53.6631C210.474 53.6631 210.629 53.6912 210.727 53.7404V54.6887H210.734Z" fill="#492909"/>
</g>
<defs>
<clipPath id="clip0_334_1213">
<rect width="238" height="71" fill="white"/>
</clipPath>
</defs>
</svg>
