<svg width="316" height="95" viewBox="0 0 316 95" fill="none" xmlns="http://www.w3.org/2000/svg">
<path d="M12.0917 17.0777C12.0917 20.4114 9.385 23.1136 6.04584 23.1136C2.70667 23.1136 0 20.4114 0 17.0777C0 13.744 2.70667 11.0417 6.04584 11.0417C9.385 11.0417 12.0917 13.744 12.0917 17.0777ZM11.6917 1.37494C9.65474 1.37494 7.99911 3.02786 7.99911 5.06151C7.99911 7.09516 9.65474 8.74808 11.6917 8.74808C13.7287 8.74808 15.3843 7.09516 15.3843 5.06151C15.3843 3.02786 13.7287 1.37494 11.6917 1.37494ZM44.8043 46.0595H38.405C37.2238 46.0595 36.275 47.2017 36.275 48.381C36.275 49.5604 37.2331 50.7025 38.405 50.7025H44.8043C45.9856 50.7025 46.9343 49.5604 46.9343 48.381C46.9436 47.2017 45.9856 46.0595 44.8043 46.0595ZM79.0051 76.8428C79.0051 76.8428 78.4285 76.9078 77.4332 77.0286C77.1821 77.0564 76.903 77.0936 76.6054 77.1214C76.3078 77.1771 75.9822 77.2328 75.6381 77.2886C74.9498 77.4093 74.1685 77.5393 73.3313 77.7343C72.9128 77.8272 72.4756 77.92 72.0199 78.0222C71.5734 78.1522 71.1176 78.2822 70.6433 78.4122C69.6852 78.6536 68.7179 79.0343 67.7041 79.3779C67.2018 79.5729 66.6995 79.7865 66.188 80.0001C65.9368 80.1022 65.6764 80.2137 65.416 80.3251C65.1648 80.4458 64.9137 80.5666 64.6625 80.6873C64.1603 80.938 63.6394 81.1609 63.1371 81.4394C62.6349 81.718 62.1419 81.9966 61.6396 82.2752C61.1374 82.5538 60.663 82.8602 60.17 83.1574L59.4445 83.6031L58.7469 84.086C58.2912 84.411 57.8168 84.7081 57.3796 85.0517C56.9425 85.3953 56.5146 85.7296 56.0868 86.0546C55.6589 86.3796 55.2775 86.7511 54.8869 87.0761C54.4962 87.4197 54.1056 87.7354 53.7614 88.0883C53.0545 88.7754 52.3848 89.4162 51.8175 90.0662C51.5291 90.3819 51.2501 90.6884 50.9804 90.9762C50.7292 91.2734 50.4874 91.5613 50.2642 91.8213C49.8084 92.3506 49.4177 92.8149 49.1201 93.2328C48.5155 94.0406 48.1621 94.5049 48.1621 94.5049L47.8179 94.2542C47.8179 94.2542 47.8365 94.0871 47.8923 93.7992C47.9574 93.5113 48.0132 93.0656 48.1621 92.5456C48.2365 92.2856 48.2923 91.9884 48.3946 91.6727C48.4876 91.3477 48.6271 91.0227 48.7666 90.6512C48.9062 90.2891 49.0736 89.9083 49.241 89.4998C49.427 89.1097 49.641 88.7197 49.8549 88.3018C50.0781 87.8933 50.3107 87.4475 50.5897 87.0297C50.8687 86.6025 51.1664 86.1753 51.4733 85.7296C51.771 85.2746 52.143 84.866 52.5058 84.4203C52.7011 84.1788 52.9057 83.9467 53.1197 83.7052C52.4965 83.5474 51.8733 83.3431 51.2594 83.0831C46.525 81.2073 41.7442 77.1121 39.484 71.4476C37.5865 72.4877 35.0379 74.187 32.9731 75.9421L33.0289 76.0164L31.4011 77.3814C29.6804 78.8301 27.5597 79.5729 25.4018 79.5729C24.174 79.5729 22.9277 79.3315 21.7464 78.8301C19.4583 77.8643 17.6724 76.0535 16.7423 73.7506C15.8122 71.4476 15.8308 68.9125 16.7981 66.6282C17.9701 63.6845 20.5837 61.6973 23.1044 59.775C24.2206 58.93 25.3181 58.0943 26.3133 57.1749C24.5089 57.5 22.5835 57.7414 20.4628 57.9178C20.2396 57.9364 20.0071 57.9457 19.7838 57.9457C17.9329 57.9457 16.147 57.2957 14.7053 56.0885C13.0869 54.7327 12.101 52.8198 11.9242 50.7211C11.7475 48.6225 12.3986 46.5702 13.7566 44.9638C15.1146 43.348 17.0307 42.3637 19.1327 42.1872C22.3324 41.8994 25.3832 40.265 28.7782 36.987C23.6253 33.3747 20.2489 27.3945 20.2489 20.6343C20.2675 9.6024 29.2246 0.659912 40.2746 0.659912C51.3245 0.659912 60.2816 9.6024 60.2816 20.6343C60.2816 24.293 59.2864 27.7195 57.5657 30.6725C64.8207 31.759 71.1083 35.427 76.2706 41.6022L76.4194 41.8065C77.5634 43.5801 77.9541 45.6881 77.5076 47.7496C77.0612 49.8111 75.8427 51.5754 74.0661 52.7269C72.7454 53.5812 71.2479 54.0084 69.7597 54.0084C67.9459 54.0084 66.1414 53.3769 64.6718 52.1419L64.5788 52.0676C63.3883 51.1019 62.0117 50.3868 60.384 49.8854C60.2258 53.6277 59.7422 57.0542 58.9795 59.9608C58.9888 60.0258 58.9981 60.0908 58.9981 60.1651C58.9981 63.0159 59.6026 68.4204 61.8536 70.7512L61.8722 70.7697C63.565 72.3762 64.3556 74.3542 64.2068 76.5085C64.3556 76.4621 64.5044 76.4157 64.6625 76.3692C65.2485 76.1928 65.8159 75.9978 66.3926 75.8678C67.5552 75.6171 68.6714 75.3756 69.7504 75.3013C70.2898 75.2642 70.8107 75.1992 71.3223 75.1806C71.8338 75.1806 72.3268 75.1806 72.8012 75.1992C73.2755 75.2271 73.722 75.2178 74.1499 75.2828C74.5777 75.3385 74.987 75.3849 75.3683 75.4499C75.7497 75.5149 76.1031 75.5614 76.4287 75.6449C76.7542 75.7378 77.0519 75.8121 77.3216 75.8864C77.8611 76.0164 78.2703 76.1928 78.5587 76.2857C78.8377 76.3878 78.9865 76.4528 78.9865 76.4528L79.0051 76.8428ZM38.2748 6.15727C38.2748 7.25302 39.1677 8.15377 40.2746 8.15377C41.3814 8.15377 42.2743 7.26231 42.2743 6.15727C42.2743 5.05222 41.3814 4.16076 40.2746 4.16076C39.1677 4.17005 38.2748 5.06151 38.2748 6.15727ZM28.927 26.178C28.0713 24.4415 27.6434 22.575 27.6434 20.6343C27.6434 15.6941 30.5547 11.181 35.0659 9.14738C36.0053 8.72022 36.4238 7.61518 35.996 6.67729C35.5681 5.73939 34.4613 5.32152 33.5218 5.74868C27.6806 8.39521 23.9043 14.2361 23.9043 20.6343C23.9043 23.1601 24.4624 25.5744 25.5692 27.8217C25.8948 28.481 26.5552 28.8617 27.2435 28.8617C27.5225 28.8617 27.8015 28.7967 28.062 28.6667C29.0014 28.221 29.3828 27.0974 28.927 26.178ZM52.8871 79.1551C54.3846 79.7865 55.91 79.9815 57.1285 79.7029C58.3098 79.4337 59.1004 78.7743 59.5654 77.6972C60.2072 76.1835 60.0956 75.0785 59.1655 74.0663L58.8957 73.797C57.175 72.0698 56.1612 69.609 55.5659 67.2039C55.1845 67.5103 54.7102 67.6682 54.2265 67.6682C53.7707 67.6682 53.315 67.5196 52.9243 67.2225C51.9942 66.5074 51.8175 65.1702 52.543 64.2324C54.1056 62.2173 55.9007 57.1007 56.1519 49.0961C55.7891 49.0682 55.4171 49.0403 55.0357 49.0218C53.8545 48.9753 52.9429 47.9817 52.9987 46.8024C53.0545 45.6231 54.0498 44.713 55.2217 44.7687C56.4309 44.8245 57.5657 44.9359 58.6446 45.1123C58.6911 45.1216 58.7376 45.1216 58.7748 45.1309C62.2721 45.7159 65.1276 46.9417 67.425 48.8546L67.546 48.9568C68.7644 49.9132 70.448 49.9875 71.7594 49.1425C72.5779 48.6132 73.136 47.8053 73.3406 46.8488C73.536 45.9388 73.3779 45.0009 72.9035 44.2116C67.9924 38.3799 62.207 35.2598 55.2403 34.6748C55.0264 34.6562 54.8311 34.6005 54.6451 34.5262C51.0083 38.2685 45.9205 40.5993 40.2839 40.5993C37.5958 40.5993 35.0379 40.07 32.7033 39.1135C28.248 43.6823 24.0159 46.0224 19.542 46.431C18.5561 46.5145 17.6817 46.9695 17.0493 47.7124C16.4261 48.4553 16.1191 49.3932 16.2028 50.3682C16.2866 51.334 16.7423 52.2162 17.4864 52.8383C18.2305 53.4605 19.17 53.767 20.1466 53.6834C24.0066 53.3769 27.1598 52.8105 29.9967 51.9469C30.3966 50.7768 30.6384 49.4489 30.6663 47.8982C30.6849 46.7188 31.643 45.7624 32.8335 45.7995C34.0148 45.8181 34.9542 46.7838 34.9356 47.9632C34.7868 56.2742 29.7641 60.0908 25.7181 63.1645C23.4671 64.8731 21.5232 66.3496 20.7698 68.2439C20.221 69.5347 20.2117 70.8997 20.714 72.1534C21.2162 73.407 22.1836 74.382 23.4299 74.9113C25.16 75.6449 27.1319 75.3664 28.5922 74.187C31.2709 71.5312 35.4658 68.6897 38.3492 67.2318C38.219 66.331 38.1353 65.3931 38.1353 64.4181C38.1353 63.2387 39.0933 62.2916 40.2653 62.2916C41.4465 62.2916 42.3953 63.248 42.3953 64.4181C42.3953 65.5974 42.5348 66.7303 42.7859 67.8075C42.7952 67.8261 42.7952 67.8354 42.7952 67.8539C44.1439 73.3977 48.5341 77.4279 52.8871 79.1551Z" fill="white"/>
<path d="M99.7288 55.9676C97.8779 53.9061 96.957 50.591 96.957 46.013V41.5371H105.97V47.2387C105.97 49.5138 106.695 50.6467 108.156 50.6467C108.974 50.6467 109.542 50.4053 109.858 49.9317C110.174 49.4488 110.342 48.6409 110.342 47.508C110.342 46.013 110.165 44.7872 109.811 43.8029C109.458 42.8279 109.002 42.0107 108.453 41.3514C107.905 40.6921 106.919 39.6706 105.496 38.287L101.552 34.3497C98.4917 31.3688 96.9663 28.063 96.9663 24.4414C96.9663 20.5413 97.8593 17.5605 99.6637 15.5268C101.459 13.4839 104.082 12.4624 107.533 12.4624C111.653 12.4624 114.629 13.5582 116.443 15.7404C118.257 17.9226 119.169 21.3399 119.169 25.9922H109.83L109.756 22.8442C109.756 22.2406 109.588 21.7578 109.253 21.4049C108.918 21.052 108.444 20.8756 107.84 20.8756C107.123 20.8756 106.593 21.0706 106.24 21.4606C105.886 21.8506 105.71 22.3892 105.71 23.0578C105.71 24.5529 106.565 26.0944 108.267 27.6916L113.597 32.8082C114.843 34.0154 115.876 35.1576 116.694 36.244C117.513 37.3305 118.173 38.6027 118.666 40.0792C119.169 41.5557 119.41 43.3014 119.41 45.3258C119.41 49.8388 118.583 53.2561 116.927 55.5776C115.271 57.8991 112.546 59.0692 108.742 59.0692C104.584 59.0506 101.58 58.0292 99.7288 55.9676Z" fill="white"/>
<path d="M122.452 12.8801H134.562C138.227 12.8801 140.841 14.0595 142.403 16.4181C143.966 18.7768 144.747 22.2312 144.747 26.7721C144.747 31.3223 144.05 34.7395 142.664 37.0518C141.278 39.364 138.785 40.5155 135.195 40.5155H131.465V58.6233H122.452V12.8801ZM132.005 32.2694C133.102 32.2694 133.911 32.0651 134.432 31.6566C134.944 31.248 135.288 30.663 135.446 29.9015C135.604 29.14 135.688 28.0443 135.688 26.6235C135.688 24.7106 135.474 23.3177 135.046 22.4726C134.618 21.6183 133.763 21.1912 132.488 21.1912H131.474V32.2694H132.005Z" fill="white"/>
<path d="M146.402 58.6326L150.83 12.8894H166.354L170.725 58.6326H162.029L161.387 51.2316H155.843L155.313 58.6326H146.402ZM156.541 43.9327H160.698L158.671 20.6618H158.243L156.541 43.9327Z" fill="white"/>
<path d="M176.14 55.9117C174.131 53.813 173.126 50.9436 173.126 47.2849V26.1963C173.126 21.6554 174.037 18.2288 175.851 15.9166C177.665 13.6136 180.511 12.4529 184.39 12.4529C187.766 12.4529 190.491 13.3722 192.547 15.2201C194.612 17.0681 195.644 19.7332 195.644 23.2062V31.09H186.52V24.3298C186.52 23.0204 186.362 22.1104 186.036 21.6089C185.72 21.1168 185.162 20.8661 184.381 20.8661C183.562 20.8661 183.004 21.1539 182.697 21.7204C182.39 22.2868 182.241 23.1226 182.241 24.2276V47.1828C182.241 48.39 182.418 49.2722 182.771 49.82C183.125 50.3679 183.655 50.6465 184.371 50.6465C185.794 50.6465 186.501 49.495 186.501 47.1828V38.9275H195.728V47.5542C195.728 55.2245 191.868 59.0597 184.157 59.0597C180.827 59.0504 178.149 58.0103 176.14 55.9117Z" fill="white"/>
<path d="M198.787 58.6326V12.8801H217.139V21.7205H208.126V30.6165H216.767V39.2433H208.126V49.7365H217.725V58.6326H198.787Z" fill="white"/>
<path d="M225.24 57.834C223.538 57.0168 222.189 55.8189 221.213 54.2403C220.236 52.6617 219.743 50.7487 219.743 48.5108V37.0611H228.756V47.9815C228.756 48.7987 228.924 49.4487 229.268 49.9223C229.603 50.4051 230.133 50.6373 230.84 50.6373C231.519 50.6373 232.021 50.4144 232.356 49.9687C232.691 49.523 232.858 48.8915 232.858 48.0743V12.8801H242.085V47.1829C242.085 49.5601 241.61 51.6495 240.671 53.4417C239.732 55.2339 238.411 56.6175 236.727 57.5926C235.034 58.5676 233.109 59.0598 230.942 59.0598C228.849 59.0505 226.952 58.6419 225.24 57.834Z" fill="white"/>
<path d="M248.122 55.6703C246.206 53.4137 245.238 50.2472 245.238 46.1613V24.3855C245.238 20.4482 246.196 17.4674 248.122 15.4616C250.038 13.4558 252.847 12.4529 256.549 12.4529C260.251 12.4529 263.06 13.4558 264.976 15.4616C266.892 17.4674 267.859 20.4389 267.859 24.3855V46.1706C267.859 50.2843 266.901 53.4695 264.976 55.6981C263.05 57.9361 260.241 59.0504 256.549 59.0504C252.856 59.0504 250.047 57.9268 248.122 55.6703ZM258.204 49.5786C258.483 48.8729 258.632 47.8792 258.632 46.5978V24.2276C258.632 23.234 258.502 22.4261 258.232 21.804C257.962 21.1818 257.423 20.8753 256.604 20.8753C255.079 20.8753 254.307 22.0268 254.307 24.3391V46.6535C254.307 47.9721 254.465 48.9657 254.791 49.6343C255.107 50.3122 255.702 50.6465 256.549 50.6465C257.367 50.6372 257.925 50.2843 258.204 49.5786Z" fill="white"/>
<path d="M271.542 58.6328V12.8804H289.893V21.7207H280.88V30.6168H289.521V39.2435H280.88V49.7368H290.479V58.6328H271.542Z" fill="white"/>
<path d="M299.065 58.6326V43.5613L291.754 12.8894H300.823L303.381 28.3879L305.938 12.8894H315.007L307.696 43.5613V58.6326H299.065Z" fill="white"/>
<path d="M136.226 76.2764L136.43 77.6693L136.728 76.4064L138.83 69.0054H140.011L142.058 76.4064L142.346 77.6878L142.569 76.2578L144.216 69.0054H145.62L143.044 79.6101H141.769L139.583 71.8841L139.416 71.0762L139.249 71.8841L136.979 79.6101H135.705L133.138 69.0054H134.533L136.226 76.2764Z" fill="white"/>
<path d="M150.02 79.7679C148.95 79.7679 148.085 79.4151 147.406 78.7186C146.736 78.0221 146.401 77.0842 146.401 75.9049V75.6542C146.401 74.8742 146.55 74.1777 146.848 73.5648C147.145 72.9519 147.564 72.4691 148.104 72.1255C148.643 71.7819 149.22 71.6055 149.852 71.6055C150.875 71.6055 151.675 71.9398 152.243 72.6176C152.81 73.2955 153.098 74.2613 153.098 75.5149V76.0721H147.75C147.769 76.8521 148.001 77.4743 148.429 77.9571C148.866 78.44 149.415 78.6722 150.085 78.6722C150.559 78.6722 150.968 78.5793 151.294 78.3843C151.629 78.1893 151.917 77.9293 152.159 77.6136L152.987 78.2543C152.336 79.2572 151.34 79.7679 150.02 79.7679ZM149.852 72.7012C149.303 72.7012 148.848 72.8962 148.485 73.2955C148.113 73.6948 147.89 74.2427 147.797 74.9577H151.75V74.8556C151.712 74.1684 151.526 73.6391 151.192 73.2677C150.866 72.8869 150.42 72.7012 149.852 72.7012Z" fill="white"/>
<path d="M161.339 75.7654C161.339 76.9726 161.06 77.9384 160.512 78.6627C159.954 79.3963 159.209 79.7584 158.279 79.7584C157.284 79.7584 156.512 79.4056 155.963 78.6998L155.898 79.6099H154.661V68.4387H156.01V72.6082C156.559 71.9303 157.303 71.596 158.261 71.596C159.219 71.596 159.972 71.9581 160.521 72.6825C161.07 73.4068 161.339 74.4004 161.339 75.654V75.7654ZM159.991 75.6169C159.991 74.6975 159.814 73.9918 159.461 73.4903C159.107 72.9889 158.596 72.7382 157.926 72.7382C157.033 72.7382 156.4 73.1468 156.01 73.9732V77.3812C156.419 78.2077 157.07 78.6163 157.944 78.6163C158.596 78.6163 159.098 78.3655 159.451 77.8641C159.814 77.3719 159.991 76.6198 159.991 75.6169Z" fill="white"/>
<path d="M174.789 78.2263C174.426 78.7371 173.924 79.1271 173.282 79.3778C172.64 79.6285 171.887 79.7585 171.031 79.7585C170.166 79.7585 169.394 79.5542 168.724 79.1549C168.055 78.7463 167.534 78.1706 167.171 77.4277C166.808 76.6756 166.613 75.812 166.604 74.8276V73.899C166.604 72.3018 166.976 71.0668 167.72 70.1846C168.464 69.3024 169.515 68.866 170.864 68.866C171.97 68.866 172.863 69.1446 173.542 69.711C174.221 70.2775 174.631 71.0761 174.779 72.1161H173.384C173.124 70.7046 172.287 70.0082 170.873 70.0082C169.933 70.0082 169.226 70.3332 168.743 70.9925C168.259 71.6518 168.017 72.6083 168.008 73.8526V74.7162C168.008 75.9048 168.278 76.852 168.827 77.5577C169.375 78.2635 170.11 78.6071 171.04 78.6071C171.561 78.6071 172.026 78.5513 172.417 78.4306C172.807 78.3099 173.133 78.1149 173.393 77.8456V75.4684H170.938V74.3262H174.789V78.2263Z" fill="white"/>
<path d="M180.723 72.9517C180.518 72.9146 180.295 72.896 180.062 72.896C179.179 72.896 178.574 73.2674 178.258 74.0289V79.6191H176.909V71.7445H178.221L178.239 72.6546C178.686 71.9488 179.309 71.5959 180.118 71.5959C180.379 71.5959 180.583 71.6331 180.713 71.6981V72.9517H180.723Z" fill="white"/>
<path d="M186.546 79.6191C186.471 79.4613 186.406 79.1827 186.36 78.7927C185.737 79.4427 184.983 79.7677 184.118 79.7677C183.337 79.7677 182.704 79.5448 182.202 79.1084C181.7 78.6719 181.458 78.1148 181.458 77.4369C181.458 76.6197 181.774 75.979 182.397 75.524C183.021 75.069 183.904 74.8461 185.03 74.8461H186.341V74.2239C186.341 73.7503 186.202 73.3789 185.923 73.1003C185.644 72.8217 185.225 72.6824 184.676 72.6824C184.193 72.6824 183.793 72.8031 183.467 73.0446C183.142 73.286 182.974 73.5832 182.974 73.9268H181.616C181.616 73.5367 181.756 73.156 182.035 72.7846C182.314 72.4131 182.695 72.1253 183.169 71.9117C183.644 71.6981 184.174 71.5867 184.751 71.5867C185.662 71.5867 186.369 71.8095 186.89 72.2646C187.402 72.7196 187.671 73.3417 187.69 74.1403V77.7712C187.69 78.4955 187.783 79.0712 187.969 79.4984V79.6191H186.546ZM184.304 78.5884C184.732 78.5884 185.132 78.4769 185.504 78.2634C185.885 78.0405 186.155 77.7619 186.323 77.409V75.7933H185.262C183.607 75.7933 182.779 76.2761 182.779 77.2419C182.779 77.669 182.918 77.9941 183.207 78.2355C183.495 78.4677 183.867 78.5884 184.304 78.5884Z" fill="white"/>
<path d="M196.461 75.7654C196.461 76.9633 196.191 77.929 195.633 78.6626C195.084 79.3962 194.34 79.7584 193.401 79.7584C192.443 79.7584 191.689 79.452 191.141 78.8484V82.6371H189.792V71.7445H191.029L191.094 72.6174C191.643 71.9395 192.406 71.5959 193.382 71.5959C194.331 71.5959 195.084 71.9488 195.633 72.6638C196.182 73.3789 196.461 74.3725 196.461 75.6447V75.7654ZM195.112 75.6168C195.112 74.7254 194.926 74.0289 194.545 73.5089C194.164 72.9981 193.643 72.7381 192.982 72.7381C192.164 72.7381 191.55 73.1003 191.141 73.8246V77.5855C191.541 78.3005 192.164 78.6626 192.992 78.6626C193.643 78.6626 194.154 78.4026 194.536 77.8919C194.926 77.3812 195.112 76.6197 195.112 75.6168Z" fill="white"/>
<path d="M199.53 72.6917C200.126 71.9581 200.907 71.596 201.865 71.596C203.53 71.596 204.376 72.5339 204.386 74.4097V79.6192H203.037V74.4097C203.037 73.8432 202.907 73.4253 202.646 73.1468C202.386 72.8775 201.995 72.7382 201.456 72.7382C201.019 72.7382 200.637 72.8589 200.302 73.091C199.967 73.3232 199.716 73.6296 199.53 74.0104V79.6192H198.182V68.4387H199.53V72.6917Z" fill="white"/>
<path d="M206.414 69.6553C206.414 69.4324 206.479 69.256 206.619 69.0981C206.749 68.9495 206.954 68.8752 207.214 68.8752C207.474 68.8752 207.679 68.9495 207.809 69.0981C207.949 69.2467 208.014 69.4324 208.014 69.6553C208.014 69.8689 207.949 70.0546 207.809 70.2032C207.67 70.3517 207.474 70.426 207.214 70.426C206.954 70.426 206.749 70.3517 206.619 70.2032C206.479 70.0546 206.414 69.8689 206.414 69.6553ZM207.865 79.6192H206.516V71.7446H207.865V79.6192Z" fill="white"/>
<path d="M213.194 78.6626C213.678 78.6626 214.096 78.5141 214.459 78.2262C214.822 77.9383 215.017 77.5669 215.054 77.1304H216.329C216.301 77.5855 216.152 78.0126 215.864 78.4212C215.575 78.8298 215.194 79.1548 214.72 79.3962C214.245 79.6377 213.734 79.7584 213.203 79.7584C212.124 79.7584 211.278 79.3962 210.636 78.6812C210.004 77.9662 209.688 76.9819 209.688 75.7468V75.524C209.688 74.7532 209.827 74.0753 210.106 73.481C210.385 72.8867 210.794 72.4224 211.325 72.0881C211.855 71.7538 212.478 71.5959 213.194 71.5959C214.078 71.5959 214.813 71.8652 215.398 72.3945C215.984 72.9239 216.301 73.611 216.338 74.4561H215.064C215.026 73.9453 214.831 73.5275 214.487 73.2024C214.143 72.8774 213.715 72.7103 213.203 72.7103C212.515 72.7103 211.985 72.961 211.613 73.4439C211.232 73.936 211.045 74.6511 211.045 75.5797V75.8304C211.045 76.7404 211.232 77.4369 211.604 77.929C211.966 78.4212 212.496 78.6626 213.194 78.6626Z" fill="white"/>
<path d="M221.751 79.6193V69.0146H224.746C225.667 69.0146 226.485 69.2189 227.192 69.6275C227.899 70.0361 228.448 70.6119 228.839 71.3733C229.22 72.1255 229.425 72.9891 229.425 73.9641V74.642C229.425 75.6449 229.229 76.5178 228.848 77.27C228.457 78.0221 227.908 78.5979 227.192 79.0065C226.476 79.4058 225.639 79.6193 224.69 79.6286H221.751V79.6193ZM223.155 70.1568V78.4679H224.625C225.704 78.4679 226.541 78.1336 227.146 77.465C227.75 76.7964 228.048 75.8399 228.048 74.6049V73.9827C228.048 72.7755 227.769 71.8376 227.202 71.169C226.634 70.5004 225.834 70.1661 224.792 70.1568H223.155Z" fill="white"/>
<path d="M234.614 79.7679C233.545 79.7679 232.67 79.4151 232.001 78.7186C231.331 78.0221 230.996 77.0842 230.996 75.9049V75.6542C230.996 74.8742 231.145 74.1777 231.443 73.5648C231.74 72.9519 232.159 72.4691 232.698 72.1255C233.238 71.7819 233.814 71.6055 234.447 71.6055C235.47 71.6055 236.27 71.9398 236.837 72.6176C237.405 73.2955 237.693 74.2613 237.693 75.5149V76.0721H232.345C232.363 76.8521 232.587 77.4743 233.024 77.9571C233.461 78.44 234.01 78.6722 234.679 78.6722C235.154 78.6722 235.563 78.5793 235.889 78.3843C236.223 78.1893 236.512 77.9293 236.754 77.6136L237.581 78.2543C236.921 79.2572 235.935 79.7679 234.614 79.7679ZM234.447 72.7012C233.907 72.7012 233.442 72.8962 233.08 73.2955C232.708 73.6948 232.484 74.2427 232.391 74.9577H236.344V74.8556C236.307 74.1684 236.121 73.6391 235.786 73.2677C235.451 72.8869 235.005 72.7012 234.447 72.7012Z" fill="white"/>
<path d="M243.842 77.53C243.842 77.1678 243.703 76.88 243.433 76.685C243.154 76.4807 242.68 76.3135 242.001 76.1649C241.322 76.0163 240.773 75.8399 240.373 75.6356C239.973 75.4313 239.675 75.1899 239.48 74.9113C239.285 74.6327 239.192 74.2984 239.192 73.9084C239.192 73.2677 239.461 72.7198 240.01 72.2741C240.559 71.8283 241.257 71.6055 242.103 71.6055C242.996 71.6055 243.721 71.8376 244.279 72.3019C244.838 72.7662 245.117 73.3512 245.117 74.0756H243.759C243.759 73.7041 243.6 73.3884 243.284 73.1191C242.968 72.8498 242.577 72.7198 242.103 72.7198C241.61 72.7198 241.229 72.8219 240.95 73.0355C240.671 73.2491 240.531 73.5277 240.531 73.8713C240.531 74.1963 240.661 74.447 240.922 74.6049C241.182 74.772 241.647 74.9299 242.317 75.0785C242.987 75.227 243.535 75.4128 243.954 75.6171C244.372 75.8213 244.679 76.0814 244.884 76.3692C245.089 76.6664 245.191 77.0192 245.191 77.4464C245.191 78.1522 244.912 78.7093 244.345 79.1365C243.777 79.5636 243.052 79.7772 242.149 79.7772C241.517 79.7772 240.959 79.6658 240.475 79.4429C239.992 79.22 239.61 78.9043 239.331 78.505C239.052 78.1057 238.922 77.6693 238.922 77.205H240.271C240.298 77.66 240.475 78.0129 240.81 78.2821C241.145 78.5514 241.591 78.6815 242.149 78.6815C242.661 78.6815 243.07 78.5793 243.377 78.375C243.693 78.1522 243.842 77.8736 243.842 77.53Z" fill="white"/>
<path d="M246.958 69.6553C246.958 69.4324 247.023 69.256 247.153 69.0981C247.284 68.9495 247.488 68.8752 247.749 68.8752C248.009 68.8752 248.214 68.9495 248.344 69.0981C248.483 69.2467 248.549 69.4324 248.549 69.6553C248.549 69.8689 248.483 70.0546 248.344 70.2032C248.204 70.3517 248.009 70.426 247.749 70.426C247.488 70.426 247.284 70.3517 247.153 70.2032C247.023 70.0546 246.958 69.8689 246.958 69.6553ZM248.418 79.6192H247.07V71.7446H248.418V79.6192Z" fill="white"/>
<path d="M250.26 75.6168C250.26 74.3911 250.548 73.416 251.115 72.6824C251.683 71.9581 252.436 71.5959 253.376 71.5959C254.343 71.5959 255.087 71.9395 255.627 72.6174L255.692 71.7445H256.929V79.4334C256.929 80.4549 256.622 81.2535 256.017 81.8385C255.413 82.4235 254.594 82.7207 253.58 82.7207C253.013 82.7207 252.455 82.5999 251.906 82.3585C251.367 82.1171 250.948 81.7828 250.66 81.3649L251.357 80.557C251.934 81.272 252.641 81.6249 253.478 81.6249C254.138 81.6249 254.641 81.4392 255.013 81.0677C255.385 80.6963 255.562 80.1763 255.562 79.5077V78.8298C255.022 79.452 254.287 79.7584 253.357 79.7584C252.436 79.7584 251.683 79.387 251.115 78.6441C250.539 77.9105 250.26 76.8983 250.26 75.6168ZM251.608 75.7654C251.608 76.6569 251.794 77.3533 252.157 77.8548C252.52 78.3655 253.032 78.6162 253.692 78.6162C254.538 78.6162 255.171 78.2262 255.562 77.4555V73.8618C255.152 73.1096 254.529 72.7288 253.701 72.7288C253.041 72.7288 252.529 72.9889 252.167 73.4903C251.794 74.0103 251.608 74.7625 251.608 75.7654Z" fill="white"/>
<path d="M260.23 71.7448L260.277 72.7384C260.881 71.9862 261.663 71.6055 262.639 71.6055C264.304 71.6055 265.151 72.5434 265.16 74.4191V79.6286H263.811V74.4191C263.811 73.8527 263.672 73.4348 263.421 73.1562C263.16 72.8869 262.77 72.7477 262.23 72.7477C261.793 72.7477 261.412 72.8684 261.077 73.1005C260.751 73.3327 260.491 73.6391 260.305 74.0198V79.6286H258.956V71.754H260.23V71.7448Z" fill="white"/>
<path d="M270.472 79.7679C269.402 79.7679 268.537 79.4151 267.858 78.7186C267.188 78.0221 266.854 77.0842 266.854 75.9049V75.6542C266.854 74.8742 267.002 74.1777 267.3 73.5648C267.598 72.9519 268.016 72.4691 268.556 72.1255C269.095 71.7819 269.672 71.6055 270.304 71.6055C271.327 71.6055 272.127 71.9398 272.695 72.6176C273.262 73.2955 273.55 74.2613 273.55 75.5149V76.0721H268.202C268.221 76.8521 268.453 77.4743 268.881 77.9571C269.318 78.44 269.867 78.6722 270.537 78.6722C271.011 78.6722 271.42 78.5793 271.746 78.3843C272.081 78.1893 272.369 77.9293 272.611 77.6136L273.439 78.2543C272.788 79.2572 271.793 79.7679 270.472 79.7679ZM270.304 72.7012C269.756 72.7012 269.3 72.8962 268.937 73.2955C268.565 73.6948 268.342 74.2427 268.249 74.9577H272.202V74.8556C272.165 74.1684 271.979 73.6391 271.644 73.2677C271.318 72.8869 270.872 72.7012 270.304 72.7012Z" fill="white"/>
<path d="M278.926 72.9517C278.721 72.9146 278.498 72.896 278.265 72.896C277.382 72.896 276.777 73.2674 276.461 74.0289V79.6191H275.112V71.7445H276.424L276.442 72.6546C276.88 71.9488 277.512 71.5959 278.321 71.5959C278.582 71.5959 278.786 71.6331 278.917 71.6981V72.9517H278.926Z" fill="white"/>
</svg>
