<svg width="918" height="714" viewBox="0 0 918 714" fill="none" xmlns="http://www.w3.org/2000/svg">
<rect x="0.5" y="0.837891" width="44.9" height="712.325" stroke="#D9D9D9" stroke-opacity="0.05"/>
<rect x="0.5" y="0.837891" width="44.9" height="712.325" stroke="#D9D9D9" stroke-opacity="0.05"/>
<rect x="46.3994" y="0.837891" width="44.9" height="712.325" stroke="#D9D9D9" stroke-opacity="0.05"/>
<rect x="46.3994" y="0.837891" width="44.9" height="712.325" stroke="#D9D9D9" stroke-opacity="0.05"/>
<rect x="92.2998" y="0.837891" width="44.9" height="712.325" stroke="#D9D9D9" stroke-opacity="0.05"/>
<rect x="92.2998" y="0.837891" width="44.9" height="712.325" stroke="#D9D9D9" stroke-opacity="0.05"/>
<rect x="138.2" y="0.837891" width="44.9" height="712.325" stroke="#D9D9D9" stroke-opacity="0.05"/>
<rect x="138.2" y="0.837891" width="44.9" height="712.325" stroke="#D9D9D9" stroke-opacity="0.05"/>
<rect x="184.101" y="0.837891" width="44.9" height="712.325" stroke="#D9D9D9" stroke-opacity="0.05"/>
<rect x="184.101" y="0.837891" width="44.9" height="712.325" stroke="#D9D9D9" stroke-opacity="0.05"/>
<rect x="230" y="0.837891" width="44.9" height="712.325" stroke="#D9D9D9" stroke-opacity="0.05"/>
<rect x="230" y="0.837891" width="44.9" height="712.325" stroke="#D9D9D9" stroke-opacity="0.05"/>
<rect x="275.899" y="0.837891" width="44.9" height="712.325" stroke="#D9D9D9" stroke-opacity="0.05"/>
<rect x="275.899" y="0.837891" width="44.9" height="712.325" stroke="#D9D9D9" stroke-opacity="0.05"/>
<rect x="321.8" y="0.837891" width="44.9" height="712.325" stroke="#D9D9D9" stroke-opacity="0.05"/>
<rect x="321.8" y="0.837891" width="44.9" height="712.325" stroke="#D9D9D9" stroke-opacity="0.05"/>
<rect x="367.7" y="0.837891" width="44.9" height="712.325" stroke="#D9D9D9" stroke-opacity="0.05"/>
<rect x="367.7" y="0.837891" width="44.9" height="712.325" stroke="#D9D9D9" stroke-opacity="0.05"/>
<rect x="413.6" y="0.837891" width="44.9" height="712.325" stroke="#D9D9D9" stroke-opacity="0.05"/>
<rect x="413.6" y="0.837891" width="44.9" height="712.325" stroke="#D9D9D9" stroke-opacity="0.05"/>
<rect x="459.5" y="0.837891" width="44.9" height="712.325" stroke="#D9D9D9" stroke-opacity="0.05"/>
<rect x="459.5" y="0.837891" width="44.9" height="712.325" stroke="#D9D9D9" stroke-opacity="0.05"/>
<rect x="505.4" y="0.837891" width="44.9" height="712.325" stroke="#D9D9D9" stroke-opacity="0.05"/>
<rect x="505.4" y="0.837891" width="44.9" height="712.325" stroke="#D9D9D9" stroke-opacity="0.05"/>
<rect x="551.299" y="0.837891" width="44.9" height="712.325" stroke="#D9D9D9" stroke-opacity="0.05"/>
<rect x="551.299" y="0.837891" width="44.9" height="712.325" stroke="#D9D9D9" stroke-opacity="0.05"/>
<rect x="597.201" y="0.837891" width="44.9" height="712.325" stroke="#D9D9D9" stroke-opacity="0.05"/>
<rect x="597.201" y="0.837891" width="44.9" height="712.325" stroke="#D9D9D9" stroke-opacity="0.05"/>
<rect x="643.1" y="0.837891" width="44.9" height="712.325" stroke="#D9D9D9" stroke-opacity="0.05"/>
<rect x="643.1" y="0.837891" width="44.9" height="712.325" stroke="#D9D9D9" stroke-opacity="0.05"/>
<rect x="689" y="0.837891" width="44.9" height="712.325" stroke="#D9D9D9" stroke-opacity="0.05"/>
<rect x="689" y="0.837891" width="44.9" height="712.325" stroke="#D9D9D9" stroke-opacity="0.05"/>
<rect x="734.9" y="0.837891" width="44.9" height="712.325" stroke="#D9D9D9" stroke-opacity="0.05"/>
<rect x="734.9" y="0.837891" width="44.9" height="712.325" stroke="#D9D9D9" stroke-opacity="0.05"/>
<rect x="780.799" y="0.837891" width="44.9" height="712.325" stroke="#D9D9D9" stroke-opacity="0.05"/>
<rect x="780.799" y="0.837891" width="44.9" height="712.325" stroke="#D9D9D9" stroke-opacity="0.05"/>
<rect x="826.701" y="0.837891" width="44.9" height="712.325" stroke="#D9D9D9" stroke-opacity="0.05"/>
<rect x="826.701" y="0.837891" width="44.9" height="712.325" stroke="#D9D9D9" stroke-opacity="0.05"/>
<rect x="872.6" y="0.837891" width="44.9" height="712.325" stroke="#D9D9D9" stroke-opacity="0.05"/>
<rect x="872.6" y="0.837891" width="44.9" height="712.325" stroke="#D9D9D9" stroke-opacity="0.05"/>
<rect x="0.5" y="713.162" width="43.5828" height="917" transform="rotate(-90 0.5 713.162)" stroke="#D9D9D9" stroke-opacity="0.05"/>
<rect x="0.5" y="713.162" width="43.5828" height="917" transform="rotate(-90 0.5 713.162)" stroke="#D9D9D9" stroke-opacity="0.05"/>
<rect x="0.5" y="668.58" width="43.5828" height="917" transform="rotate(-90 0.5 668.58)" stroke="#D9D9D9" stroke-opacity="0.05"/>
<rect x="0.5" y="668.58" width="43.5828" height="917" transform="rotate(-90 0.5 668.58)" stroke="#D9D9D9" stroke-opacity="0.05"/>
<rect x="0.5" y="623.997" width="43.5828" height="917" transform="rotate(-90 0.5 623.997)" stroke="#D9D9D9" stroke-opacity="0.05"/>
<rect x="0.5" y="623.997" width="43.5828" height="917" transform="rotate(-90 0.5 623.997)" stroke="#D9D9D9" stroke-opacity="0.05"/>
<rect x="0.5" y="579.414" width="43.5828" height="917" transform="rotate(-90 0.5 579.414)" stroke="#D9D9D9" stroke-opacity="0.05"/>
<rect x="0.5" y="579.414" width="43.5828" height="917" transform="rotate(-90 0.5 579.414)" stroke="#D9D9D9" stroke-opacity="0.05"/>
<rect x="0.5" y="534.831" width="43.5828" height="917" transform="rotate(-90 0.5 534.831)" stroke="#D9D9D9" stroke-opacity="0.05"/>
<rect x="0.5" y="534.831" width="43.5828" height="917" transform="rotate(-90 0.5 534.831)" stroke="#D9D9D9" stroke-opacity="0.05"/>
<rect x="0.5" y="490.249" width="43.5828" height="917" transform="rotate(-90 0.5 490.249)" stroke="#D9D9D9" stroke-opacity="0.05"/>
<rect x="0.5" y="490.249" width="43.5828" height="917" transform="rotate(-90 0.5 490.249)" stroke="#D9D9D9" stroke-opacity="0.05"/>
<rect x="0.5" y="445.666" width="43.5828" height="917" transform="rotate(-90 0.5 445.666)" stroke="#D9D9D9" stroke-opacity="0.05"/>
<rect x="0.5" y="445.666" width="43.5828" height="917" transform="rotate(-90 0.5 445.666)" stroke="#D9D9D9" stroke-opacity="0.05"/>
<rect x="0.5" y="401.083" width="43.5828" height="917" transform="rotate(-90 0.5 401.083)" stroke="#D9D9D9" stroke-opacity="0.05"/>
<rect x="0.5" y="401.083" width="43.5828" height="917" transform="rotate(-90 0.5 401.083)" stroke="#D9D9D9" stroke-opacity="0.05"/>
<rect x="0.5" y="356.5" width="43.5828" height="917" transform="rotate(-90 0.5 356.5)" stroke="#D9D9D9" stroke-opacity="0.05"/>
<rect x="0.5" y="356.5" width="43.5828" height="917" transform="rotate(-90 0.5 356.5)" stroke="#D9D9D9" stroke-opacity="0.05"/>
<rect x="0.5" y="311.917" width="43.5828" height="917" transform="rotate(-90 0.5 311.917)" stroke="#D9D9D9" stroke-opacity="0.05"/>
<rect x="0.5" y="311.917" width="43.5828" height="917" transform="rotate(-90 0.5 311.917)" stroke="#D9D9D9" stroke-opacity="0.05"/>
<rect x="0.5" y="267.334" width="43.5828" height="917" transform="rotate(-90 0.5 267.334)" stroke="#D9D9D9" stroke-opacity="0.05"/>
<rect x="0.5" y="267.334" width="43.5828" height="917" transform="rotate(-90 0.5 267.334)" stroke="#D9D9D9" stroke-opacity="0.05"/>
<rect x="0.5" y="222.751" width="43.5828" height="917" transform="rotate(-90 0.5 222.751)" stroke="#D9D9D9" stroke-opacity="0.05"/>
<rect x="0.5" y="222.751" width="43.5828" height="917" transform="rotate(-90 0.5 222.751)" stroke="#D9D9D9" stroke-opacity="0.05"/>
<rect x="0.5" y="178.169" width="43.5828" height="917" transform="rotate(-90 0.5 178.169)" stroke="#D9D9D9" stroke-opacity="0.05"/>
<rect x="0.5" y="178.169" width="43.5828" height="917" transform="rotate(-90 0.5 178.169)" stroke="#D9D9D9" stroke-opacity="0.05"/>
<rect x="0.5" y="133.586" width="43.5828" height="917" transform="rotate(-90 0.5 133.586)" stroke="#D9D9D9" stroke-opacity="0.05"/>
<rect x="0.5" y="133.586" width="43.5828" height="917" transform="rotate(-90 0.5 133.586)" stroke="#D9D9D9" stroke-opacity="0.05"/>
<rect x="0.5" y="89.0034" width="43.5828" height="917" transform="rotate(-90 0.5 89.0034)" stroke="#D9D9D9" stroke-opacity="0.05"/>
<rect x="0.5" y="89.0034" width="43.5828" height="917" transform="rotate(-90 0.5 89.0034)" stroke="#D9D9D9" stroke-opacity="0.05"/>
<rect x="0.5" y="44.4204" width="43.5828" height="917" transform="rotate(-90 0.5 44.4204)" stroke="#D9D9D9" stroke-opacity="0.05"/>
<rect x="0.5" y="44.4204" width="43.5828" height="917" transform="rotate(-90 0.5 44.4204)" stroke="#D9D9D9" stroke-opacity="0.05"/>
<line x1="459" y1="714" x2="459" stroke="#534062" stroke-width="2"/>
<line x1="2.80366e-08" y1="357" x2="918" y2="357" stroke="#534062" stroke-width="2"/>
</svg>
