<svg width="72" height="21" viewBox="0 0 72 21" fill="none" xmlns="http://www.w3.org/2000/svg">
<path d="M2.78517 3.67386C2.78517 4.41985 2.16172 5.02454 1.39258 5.02454C0.623449 5.02454 0 4.41985 0 3.67386C0 2.92786 0.623449 2.32317 1.39258 2.32317C2.16172 2.32317 2.78517 2.92786 2.78517 3.67386ZM2.69304 0.157926C2.22385 0.157926 1.8425 0.527805 1.8425 0.982881C1.8425 1.43796 2.22385 1.80784 2.69304 1.80784C3.16224 1.80784 3.54359 1.43796 3.54359 0.982881C3.54359 0.527805 3.16224 0.157926 2.69304 0.157926ZM10.3201 10.1592H8.84612C8.57618 10.1592 8.3555 10.4148 8.3555 10.6787C8.3555 10.9426 8.57618 11.1982 8.84612 11.1982H10.3201C10.5922 11.1982 10.8107 10.9426 10.8107 10.6787C10.8129 10.4148 10.5922 10.1592 10.3201 10.1592ZM18.2 17.0477C18.2 17.0477 18.0672 17.0622 17.8379 17.0893C17.7801 17.0955 17.7158 17.1038 17.6473 17.11C17.5787 17.1225 17.5037 17.135 17.4244 17.1474C17.2659 17.1744 17.0859 17.2035 16.8931 17.2472C16.7967 17.268 16.696 17.2887 16.591 17.3116C16.4882 17.3407 16.3832 17.3698 16.274 17.3989C16.0533 17.4529 15.8305 17.5381 15.5969 17.615C15.4812 17.6586 15.3656 17.7064 15.2477 17.7542C15.1899 17.7771 15.1299 17.802 15.0699 17.8269C15.0121 17.8539 14.9542 17.881 14.8964 17.908C14.7807 17.9641 14.6607 18.014 14.545 18.0763C14.4293 18.1386 14.3158 18.201 14.2001 18.2633C14.0844 18.3256 13.9751 18.3942 13.8616 18.4607L13.6945 18.5605L13.5338 18.6685C13.4288 18.7412 13.3195 18.8077 13.2188 18.8846C13.1181 18.9615 13.0196 19.0363 12.921 19.109C12.8225 19.1818 12.7346 19.2649 12.6447 19.3376C12.5547 19.4145 12.4647 19.4852 12.3854 19.5641C12.2226 19.7179 12.0683 19.8613 11.9377 20.0067C11.8712 20.0774 11.807 20.146 11.7448 20.2104C11.687 20.2769 11.6313 20.3413 11.5799 20.3995C11.4749 20.5179 11.3849 20.6218 11.3164 20.7153C11.1771 20.8961 11.0957 21 11.0957 21L11.0164 20.9439C11.0164 20.9439 11.0207 20.9065 11.0336 20.8421C11.0485 20.7777 11.0614 20.6779 11.0957 20.5615C11.1128 20.5034 11.1257 20.4369 11.1492 20.3662C11.1707 20.2935 11.2028 20.2208 11.2349 20.1376C11.2671 20.0566 11.3056 19.9714 11.3442 19.88C11.3871 19.7927 11.4363 19.7054 11.4856 19.6119C11.537 19.5205 11.5906 19.4207 11.6549 19.3272C11.7191 19.2316 11.7877 19.1361 11.8584 19.0363C11.9269 18.9345 12.0126 18.8431 12.0962 18.7433C12.1412 18.6893 12.1883 18.6373 12.2376 18.5833C12.0941 18.548 11.9505 18.5023 11.8091 18.4441C10.7186 18.0243 9.6174 17.108 9.09679 15.8404C8.65973 16.0731 8.0727 16.4534 7.59708 16.8461L7.60994 16.8628L7.23501 17.1682C6.83866 17.4924 6.35018 17.6586 5.85314 17.6586C5.57034 17.6586 5.28325 17.6046 5.01116 17.4924C4.48412 17.2763 4.07277 16.8711 3.85853 16.3557C3.64429 15.8404 3.64857 15.2731 3.87138 14.7619C4.14133 14.1032 4.74336 13.6585 5.32396 13.2284C5.58105 13.0393 5.83386 12.8523 6.0631 12.6465C5.64746 12.7193 5.20398 12.7733 4.7155 12.8128C4.66409 12.8169 4.61052 12.819 4.55911 12.819C4.13276 12.819 3.72141 12.6736 3.38934 12.4034C3.01655 12.1 2.78945 11.672 2.74875 11.2024C2.70804 10.7327 2.85801 10.2735 3.17081 9.91401C3.4836 9.55244 3.92494 9.33218 4.40914 9.2927C5.14613 9.22828 5.84885 8.86256 6.63084 8.12903C5.44393 7.3207 4.66623 5.98249 4.66623 4.46972C4.66623 2.00109 6.72939 0 9.27461 0C11.8198 0 13.883 2.00109 13.883 4.46972C13.883 5.28844 13.6538 6.05521 13.2574 6.71601C14.9285 6.95913 16.3768 7.77993 17.5658 9.16178L17.6001 9.2075C17.8636 9.60439 17.9536 10.0761 17.8508 10.5374C17.7479 10.9987 17.4673 11.3935 17.0581 11.6512C16.7539 11.8424 16.4089 11.938 16.0661 11.938C15.6484 11.938 15.2327 11.7967 14.8942 11.5203L14.8728 11.5037C14.5986 11.2876 14.2815 11.1275 13.9066 11.0153C13.8701 11.8528 13.7587 12.6195 13.5831 13.2699C13.5852 13.2845 13.5873 13.299 13.5873 13.3157C13.5873 13.9536 13.7266 15.163 14.2451 15.6845L14.2493 15.6887C14.6393 16.0482 14.8214 16.4908 14.7871 16.9729C14.8214 16.9625 14.8557 16.9521 14.8921 16.9417C15.0271 16.9022 15.1577 16.8586 15.2906 16.8295C15.5584 16.7734 15.8155 16.7194 16.064 16.7028C16.1883 16.6944 16.3082 16.6799 16.4261 16.6757C16.5439 16.6757 16.6574 16.6757 16.7667 16.6799C16.876 16.6861 16.9788 16.684 17.0774 16.6986C17.1759 16.7111 17.2702 16.7215 17.358 16.736C17.4459 16.7505 17.5273 16.7609 17.6023 16.7796C17.6772 16.8004 17.7458 16.817 17.8079 16.8337C17.9322 16.8628 18.0265 16.9022 18.0929 16.923C18.1572 16.9459 18.1914 16.9604 18.1914 16.9604L18.2 17.0477ZM8.81613 1.23016C8.81613 1.47744 9.0218 1.67692 9.27675 1.67692C9.5317 1.67692 9.73738 1.47744 9.73738 1.23016C9.73738 0.982881 9.5317 0.783396 9.27675 0.783396C9.0218 0.783396 8.81613 0.984959 8.81613 1.23016ZM6.66298 5.71027C6.46587 5.32169 6.36732 4.90402 6.36732 4.46972C6.36732 3.36424 7.03791 2.35434 8.07699 1.89927C8.29337 1.80368 8.38978 1.5564 8.29123 1.34653C8.19268 1.13665 7.93773 1.04314 7.72134 1.13873C6.37589 1.73095 5.50606 3.038 5.50606 4.46972C5.50606 5.03493 5.63461 5.5752 5.88956 6.07807C5.96454 6.22561 6.11666 6.31081 6.2752 6.31081C6.33947 6.31081 6.40374 6.29626 6.46373 6.26717C6.68012 6.16743 6.76796 5.91599 6.66298 5.71027ZM12.1819 17.5651C12.5268 17.7064 12.8782 17.75 13.1588 17.6877C13.4309 17.6274 13.613 17.4799 13.7202 17.2389C13.868 16.9002 13.8423 16.6529 13.628 16.4264L13.5659 16.3661C13.1696 15.9796 12.936 15.429 12.7989 14.8908C12.7111 14.9593 12.6018 14.9947 12.4904 14.9947C12.3854 14.9947 12.2804 14.9614 12.1905 14.8949C11.9762 14.7349 11.9355 14.4357 12.1026 14.2258C12.4626 13.7749 12.876 12.6299 12.9339 10.8387C12.8503 10.8325 12.7646 10.8262 12.6768 10.8221C12.4047 10.8117 12.1948 10.5894 12.2076 10.3255C12.2205 10.0615 12.4497 9.85791 12.7196 9.87037C12.9982 9.88284 13.2595 9.90778 13.5081 9.94726C13.5188 9.94934 13.5295 9.94934 13.5381 9.95142C14.3436 10.0823 15.0013 10.3566 15.5305 10.7847L15.5584 10.8075C15.839 11.0216 16.2268 11.0382 16.5289 10.8491C16.7174 10.7307 16.846 10.5499 16.8931 10.3358C16.9381 10.1322 16.9017 9.92232 16.7924 9.7457C15.6612 8.44073 14.3286 7.74253 12.7239 7.61162C12.6747 7.60746 12.6297 7.59499 12.5868 7.57837C11.7491 8.41579 10.5772 8.93736 9.27889 8.93736C8.65973 8.93736 8.07056 8.81892 7.53281 8.60489C6.50658 9.62725 5.53177 10.1509 4.50126 10.2423C4.27416 10.261 4.07277 10.3629 3.92709 10.5291C3.78354 10.6953 3.71284 10.9052 3.73213 11.1234C3.75141 11.3416 3.85639 11.5369 4.02778 11.6761C4.19918 11.8154 4.41556 11.8839 4.64052 11.8652C5.52963 11.7967 6.25592 11.6699 6.90936 11.4766C7.00148 11.2148 7.05719 10.9177 7.06361 10.5707C7.0679 10.3067 7.28857 10.0927 7.5628 10.101C7.83489 10.1052 8.05128 10.3213 8.04699 10.5852C8.01271 12.445 6.8558 13.299 5.92384 13.9868C5.40537 14.3692 4.9576 14.6996 4.78406 15.1235C4.65766 15.4123 4.65552 15.7178 4.77121 15.9983C4.8869 16.2788 5.10971 16.497 5.3968 16.6155C5.79529 16.7796 6.24949 16.7173 6.58585 16.4534C7.20287 15.8591 8.16911 15.2232 8.83327 14.897C8.80327 14.6954 8.78399 14.4835 8.78399 14.2674C8.78399 14.0035 9.00466 13.7915 9.27461 13.7915C9.5467 13.7915 9.76523 14.0055 9.76523 14.2674C9.76523 14.5313 9.79736 14.7848 9.85521 15.0258C9.85735 15.03 9.85735 15.0321 9.85735 15.0362C10.168 16.2768 11.1792 17.1765 12.1819 17.5651Z" fill="#DD8905"/>
<path d="M22.6872 14.4344C22.2674 13.9646 22.0586 13.209 22.0586 12.1657V11.1457H24.1026V12.4451C24.1026 12.9636 24.2672 13.2217 24.5983 13.2217C24.784 13.2217 24.9127 13.1667 24.9844 13.0588C25.0561 12.9487 25.0941 12.7646 25.0941 12.5064C25.0941 12.1657 25.054 11.8864 24.9738 11.662C24.8937 11.4398 24.7903 11.2536 24.6658 11.1033C24.5414 10.9531 24.3178 10.7203 23.995 10.405L23.1007 9.50764C22.4067 8.82831 22.0607 8.07491 22.0607 7.24955C22.0607 6.36071 22.2632 5.68138 22.6724 5.21791C23.0796 4.75232 23.6744 4.51953 24.457 4.51953C25.3915 4.51953 26.0665 4.76925 26.4778 5.26658C26.8892 5.76391 27.0959 6.54271 27.0959 7.60298H24.978L24.9612 6.88555C24.9612 6.74799 24.9232 6.63794 24.8473 6.55753C24.7713 6.47711 24.6637 6.4369 24.5266 6.4369C24.3642 6.4369 24.244 6.48134 24.1638 6.57022C24.0836 6.65911 24.0436 6.78185 24.0436 6.93423C24.0436 7.27495 24.2376 7.62626 24.6237 7.99026L25.8324 9.15634C26.115 9.43146 26.3492 9.69176 26.5348 9.93937C26.7204 10.187 26.8702 10.4769 26.982 10.8134C27.0959 11.1499 27.1508 11.5478 27.1508 12.0091C27.1508 13.0376 26.963 13.8164 26.5875 14.3455C26.2121 14.8746 25.594 15.1412 24.7312 15.1412C23.7883 15.137 23.107 14.9042 22.6872 14.4344Z" fill="#DD8905"/>
<path d="M27.8398 4.61523H30.5863C31.4174 4.61523 32.0102 4.884 32.3646 5.42154C32.719 5.95908 32.8961 6.74635 32.8961 7.78121C32.8961 8.8182 32.7379 9.597 32.4236 10.124C32.1093 10.6509 31.544 10.9133 30.7298 10.9133H29.8839V15.0401H27.8398V4.61523ZM30.0062 9.03406C30.2551 9.03406 30.4387 8.9875 30.5568 8.89439C30.6728 8.80127 30.7509 8.66794 30.7867 8.49441C30.8226 8.32087 30.8416 8.07115 30.8416 7.74735C30.8416 7.3114 30.793 6.99395 30.696 6.80137C30.599 6.60667 30.4049 6.50932 30.1159 6.50932H29.886V9.03406H30.0062Z" fill="#DD8905"/>
<path d="M33.2734 15.0421L34.2775 4.61719H37.7982L38.7896 15.0421H36.8173L36.6717 13.3554H35.4145L35.2943 15.0421H33.2734ZM35.5727 11.692H36.5156L36.0558 6.38853H35.9587L35.5727 11.692Z" fill="#DD8905"/>
<path d="M40.0155 14.4209C39.5598 13.9426 39.332 13.2887 39.332 12.4548V7.64872C39.332 6.61385 39.5388 5.83294 39.9501 5.30598C40.3614 4.78114 41.0069 4.5166 41.8865 4.5166C42.6523 4.5166 43.2703 4.72611 43.7365 5.14726C44.2048 5.5684 44.439 6.17578 44.439 6.96727V8.76401H42.3696V7.22334C42.3696 6.92495 42.3337 6.71755 42.2599 6.60327C42.1882 6.49111 42.0616 6.43397 41.8844 6.43397C41.6988 6.43397 41.5722 6.49957 41.5026 6.62867C41.433 6.75776 41.3993 6.94823 41.3993 7.20007V12.4316C41.3993 12.7067 41.4393 12.9077 41.5195 13.0326C41.5997 13.1574 41.7199 13.2209 41.8823 13.2209C42.2051 13.2209 42.3654 12.9585 42.3654 12.4316V10.5502H44.4579V12.5162C44.4579 14.2643 43.5825 15.1383 41.8338 15.1383C41.0786 15.1362 40.4711 14.8992 40.0155 14.4209Z" fill="#DD8905"/>
<path d="M45.1562 15.0422V4.61523H49.3182V6.62995H47.2741V8.65736H49.2338V10.6234H47.2741V13.0148H49.451V15.0422H45.1562Z" fill="#DD8905"/>
<path d="M51.1529 14.8581C50.7648 14.6719 50.461 14.3989 50.2395 14.0391C50.0181 13.6793 49.9062 13.2434 49.9062 12.7333V10.1261H51.9503V12.6148C51.9503 12.8011 51.9883 12.9492 52.0663 13.0571C52.1422 13.1672 52.2625 13.2201 52.4228 13.2201C52.5768 13.2201 52.6907 13.1693 52.7666 13.0677C52.8426 12.9661 52.8805 12.8222 52.8805 12.636V4.61523H54.9731V12.4307C54.9731 12.9725 54.8655 13.4487 54.6525 13.8571C54.4394 14.2655 54.1399 14.5809 53.7581 14.8031C53.3742 15.0253 52.9375 15.1375 52.446 15.1375C51.9714 15.1375 51.5411 15.0443 51.1529 14.8581Z" fill="#DD8905"/>
<path d="M56.3414 14.3658C55.9069 13.8516 55.6875 13.1299 55.6875 12.1988V7.23604C55.6875 6.33873 55.9048 5.6594 56.3414 5.20228C56.776 4.74516 57.413 4.5166 58.2526 4.5166C59.0921 4.5166 59.7292 4.74516 60.1637 5.20228C60.5983 5.6594 60.8176 6.33662 60.8176 7.23604V12.2009C60.8176 13.1384 60.6004 13.8643 60.1637 14.3722C59.7271 14.8822 59.09 15.1362 58.2526 15.1362C57.4151 15.1362 56.7781 14.8801 56.3414 14.3658ZM58.628 12.9776C58.6913 12.8167 58.7251 12.5903 58.7251 12.2982V7.20007C58.7251 6.97362 58.6955 6.7895 58.6344 6.64771C58.5732 6.50592 58.4509 6.43608 58.2652 6.43608C57.9193 6.43608 57.7442 6.6985 57.7442 7.22546V12.3109C57.7442 12.6114 57.7801 12.8379 57.8539 12.9903C57.9256 13.1447 58.0606 13.2209 58.2526 13.2209C58.4403 13.2188 58.5648 13.1384 58.628 12.9776Z" fill="#DD8905"/>
<path d="M61.6523 15.0422V4.61523H65.8142V6.62995H63.7702V8.65736H65.7299V10.6234H63.7702V13.0148H65.9471V15.0422H61.6523Z" fill="#DD8905"/>
<path d="M67.8924 15.043V11.6083L66.2344 4.61816H68.2911L68.8712 8.15026L69.4513 4.61816H71.5079L69.8499 11.6083V15.043H67.8924Z" fill="#DD8905"/>
</svg>
